<svg width="40" height="41" viewBox="0 0 40 41" fill="none" xmlns="http://www.w3.org/2000/svg">
<path d="M35 3H4.99219C3.61719 3 2.5 4.13281 2.5 5.52344V35.4766C2.5 36.8672 3.61719 38 4.99219 38H35C36.375 38 37.5 36.8672 37.5 35.4766V5.52344C37.5 4.13281 36.375 3 35 3ZM13.0781 33H7.89062V16.2969H13.0859V33H13.0781ZM10.4844 14.0156C8.82031 14.0156 7.47656 12.6641 7.47656 11.0078C7.47656 9.35156 8.82031 8 10.4844 8C12.1406 8 13.4922 9.35156 13.4922 11.0078C13.4922 12.6719 12.1484 14.0156 10.4844 14.0156ZM32.5234 33H27.3359V24.875C27.3359 22.9375 27.2969 20.4453 24.6406 20.4453C21.9375 20.4453 21.5234 22.5547 21.5234 24.7344V33H16.3359V16.2969H21.3125V18.5781H21.3828C22.0781 17.2656 23.7734 15.8828 26.2969 15.8828C31.5469 15.8828 32.5234 19.3438 32.5234 23.8438V33Z" fill="#EC3C3C"/>
</svg>
