<svg width="64" height="64" viewBox="0 0 64 64" fill="none" xmlns="http://www.w3.org/2000/svg">
<g clip-path="url(#clip0_51_20)">
<path d="M47.4574 46.59C47.8649 43.1975 47.7424 42.7025 50.2674 43.25L50.9099 43.3075C52.8524 43.395 55.3924 42.995 56.9099 42.3025C60.1224 40.8125 62.0274 38.3225 58.8599 38.9775C51.6349 40.4675 51.1099 38.02 51.1099 38.02C58.7424 26.695 61.9349 12.32 59.1774 8.80248C51.6674 -0.797523 38.6649 3.74248 38.4474 3.86248L38.3774 3.87498C36.9524 3.57498 35.3774 3.39998 33.5524 3.37498C30.2824 3.32498 27.8024 4.23248 25.9174 5.65998C25.9174 5.65998 2.72491 -3.89502 3.80241 17.6775C4.03241 22.2675 10.3774 52.4275 17.9524 43.3025C20.7249 39.9675 23.3999 37.15 23.3999 37.15C24.7249 38.0325 26.3174 38.4825 27.9849 38.32L28.1149 38.21C28.0764 38.6421 28.0941 39.0774 28.1674 39.505C26.2174 41.685 26.7924 42.0675 22.8924 42.87C18.9474 43.6825 21.2674 45.13 22.7774 45.51C24.6124 45.97 28.8574 46.62 31.7274 42.605L31.6124 43.0625C32.3774 43.675 32.3249 47.4625 32.4374 50.1675C32.5499 52.8725 32.7274 55.4 33.2799 56.8875C33.8324 58.375 34.4799 62.2125 39.6049 61.1375C43.8874 60.22 47.1624 58.8975 47.4624 46.6125" fill="black"/>
<path d="M47.4574 46.59C47.8649 43.1975 47.7424 42.7025 50.2674 43.25L50.9099 43.3075C52.8524 43.395 55.3924 42.995 56.9099 42.3025C60.1224 40.8125 62.0274 38.3225 58.8599 38.9775C51.6349 40.4675 51.1099 38.02 51.1099 38.02C58.7424 26.695 61.9349 12.32 59.1774 8.80248C51.6674 -0.797523 38.6649 3.74248 38.4474 3.86248L38.3774 3.87498C36.9524 3.57498 35.3774 3.39998 33.5524 3.37498C30.2824 3.32498 27.8024 4.23248 25.9174 5.65998C25.9174 5.65998 2.72491 -3.89502 3.80241 17.6775C4.03241 22.2675 10.3774 52.4275 17.9524 43.3025C20.7249 39.9675 23.3999 37.15 23.3999 37.15C24.7249 38.0325 26.3174 38.4825 27.9849 38.32L28.1149 38.21C28.0764 38.6421 28.0941 39.0774 28.1674 39.505C26.2174 41.685 26.7924 42.0675 22.8924 42.87C18.9474 43.6825 21.2674 45.13 22.7774 45.51C24.6124 45.97 28.8574 46.62 31.7274 42.605L31.6124 43.0625C32.3774 43.675 32.3249 47.4625 32.4374 50.1675C32.5499 52.8725 32.7274 55.4 33.2799 56.8875C33.8324 58.375 34.4799 62.2125 39.6049 61.1375C43.8874 60.22 47.1624 58.8975 47.4624 46.6125" stroke="black" stroke-width="5.3725"/>
<path d="M58.8375 39.0001C51.6125 40.4901 51.0875 38.0426 51.0875 38.0426C58.72 26.7176 61.9125 12.3426 59.1575 8.82508C51.6475 -0.77492 38.645 3.76758 38.4275 3.88508L38.3575 3.89758C36.7694 3.57892 35.1547 3.41068 33.535 3.39508C30.265 3.34508 27.785 4.25258 25.9 5.68008C25.9 5.68008 2.70499 -3.87492 3.78499 17.6976C4.01499 22.2876 10.36 52.4476 17.935 43.3226C20.725 39.9676 23.4 37.1501 23.4 37.1501C24.725 38.0326 26.3175 38.4826 27.985 38.3201L28.115 38.2101C28.0768 38.6422 28.0944 39.0775 28.1675 39.5051C26.2175 41.6851 26.7925 42.0676 22.8925 42.8701C18.9475 43.6826 21.2675 45.1301 22.7775 45.5101C24.6125 45.9701 28.8575 46.6201 31.7275 42.6051L31.6125 43.0626C32.3775 43.6751 32.9125 47.0451 32.8225 50.1001C32.7325 53.1551 32.6725 55.2501 33.2725 56.8901C33.8725 58.5301 34.4725 62.2151 39.5975 61.1401C43.88 60.2226 46.0975 57.8401 46.41 53.8751C46.63 51.0551 47.125 51.4701 47.16 48.9501L47.56 47.7551C48.0175 43.9301 47.635 42.6976 50.2725 43.2726L50.915 43.3301C52.8575 43.4176 55.4 43.0176 56.89 42.3251C60.1025 40.8351 62.005 38.3451 58.8375 39.0001Z" fill="#3C6DEC"/>
<path d="M32.0349 41.1675C31.8349 48.2825 32.0849 55.4475 32.7799 57.1675C33.4749 58.8875 34.9674 62.2925 40.0949 61.1975C44.3774 60.28 45.9374 58.5025 46.6124 54.58L48.1949 42.0375M25.8899 5.50003C25.8899 5.50003 2.67994 -3.98997 3.75994 17.5825C3.98994 22.1725 10.3349 52.3325 17.9099 43.2075C20.6749 39.875 23.1749 37.2675 23.1749 37.2675M38.4249 3.76753C37.6249 4.01753 51.3349 -1.24497 59.1299 8.71253C61.8799 12.23 58.6924 26.605 51.0599 37.93" stroke="white" stroke-width="1.79" stroke-linecap="round" stroke-linejoin="round"/>
<path d="M51.0625 37.9251C51.0625 37.9251 51.5625 40.3751 58.8125 38.8801C61.98 38.2251 60.0725 40.7151 56.8625 42.2051C54.2275 43.4301 48.3175 43.7426 48.22 42.0551C47.97 37.6926 51.33 39.0176 51.0875 37.9251C50.8675 36.9401 49.3625 35.9751 48.3725 33.5651C47.505 31.4651 36.4725 15.3401 51.4325 17.7326C51.9825 17.6201 47.5325 3.48255 33.5325 3.27755C19.5325 3.07255 19.975 20.4901 19.975 20.4901" stroke="white" stroke-width="1.79" stroke-linecap="round" stroke-linejoin="bevel"/>
<path d="M28.1174 39.42C26.1674 41.6 26.7424 41.9825 22.8424 42.785C18.8974 43.5975 21.2174 45.045 22.7274 45.425C24.5624 45.885 28.8074 46.535 31.6774 42.5175C32.5524 41.2925 31.6724 39.3425 30.4724 38.8475C29.8924 38.6075 29.1174 38.3075 28.1224 39.4225L28.1174 39.42Z" stroke="white" stroke-width="1.79" stroke-linejoin="round"/>
<path d="M27.9899 39.3825C27.7899 38.1 28.4099 36.5775 29.0724 34.7925C30.0674 32.1175 32.3624 29.4425 30.5274 20.95C29.1599 14.625 19.9774 19.6325 19.9774 20.49C19.9774 21.3475 20.3924 24.84 19.8274 28.9025C19.0849 34.2075 23.2024 38.6925 27.9424 38.235" stroke="white" stroke-width="1.79" stroke-linecap="round" stroke-linejoin="round"/>
<path d="M25.8049 20.3625C25.7624 20.655 26.3424 21.4375 27.0949 21.5425C27.8474 21.6475 28.4899 21.0375 28.5324 20.7425C28.5749 20.4475 27.9949 20.1275 27.2424 20.0225C26.4899 19.9175 25.8424 20.0725 25.8049 20.3625Z" fill="white" stroke="white" stroke-width="0.5975"/>
<path d="M48.715 19.765C48.755 20.0575 48.1774 20.84 47.4249 20.945C46.6724 21.05 46.025 20.44 45.9875 20.145C45.95 19.85 46.5249 19.53 47.2774 19.425C48.0299 19.32 48.6775 19.475 48.715 19.765Z" fill="white" stroke="white" stroke-width="0.2975"/>
<path d="M51.405 17.7375C51.53 20.0375 50.91 21.6001 50.83 24.0476C50.715 27.6026 52.525 31.6725 49.7975 35.7475" stroke="white" stroke-width="1.79" stroke-linecap="round" stroke-linejoin="round"/>
</g>
<defs>
<clipPath id="clip0_51_20">
<rect width="64" height="64" fill="white"/>
</clipPath>
</defs>
</svg>
