<svg width="10" height="6" viewBox="0 0 10 6" fill="none" xmlns="http://www.w3.org/2000/svg">
<path d="M3.02885 2.21043C3.31413 1.06933 4.02732 0.498779 5.16842 0.498779C6.88007 0.498779 7.09403 1.78252 7.94986 1.99648C8.52041 2.13911 9.01964 1.92516 9.44755 1.35461C9.16228 2.49571 8.44909 3.06626 7.30799 3.06626C5.59633 3.06626 5.38237 1.78252 4.52655 1.56856C3.956 1.42593 3.45676 1.63988 3.02885 2.21043ZM0.889282 4.77792C1.17456 3.63681 1.88775 3.06626 3.02885 3.06626C4.7405 3.06626 4.95446 4.35 5.81029 4.56396C6.38084 4.7066 6.88007 4.49264 7.30799 3.92209C7.02271 5.06319 6.30952 5.63374 5.16842 5.63374C3.45676 5.63374 3.24281 4.35 2.38698 4.13604C1.81643 3.99341 1.3172 4.20736 0.889282 4.77792Z" fill="#44A8B3"/>
</svg>
