<svg width="10" height="10" viewBox="0 0 10 10" fill="none" xmlns="http://www.w3.org/2000/svg">
<path d="M9.04654 0.498779H1.2903C1.06882 0.498779 0.889282 0.67832 0.889282 0.899795V8.65603C0.889282 8.87751 1.06882 9.05705 1.2903 9.05705H9.04654C9.26801 9.05705 9.44755 8.87751 9.44755 8.65603V0.899795C9.44755 0.67832 9.26801 0.498779 9.04654 0.498779Z" fill="#3C6DEC"/>
<path fill-rule="evenodd" clip-rule="evenodd" d="M5.85456 7.14951V8.08725C6.02494 8.17135 6.20652 8.23054 6.39373 8.26301C6.61007 8.30294 6.82967 8.32259 7.04966 8.32169C7.26407 8.32271 7.47799 8.30109 7.68787 8.2572C7.8763 8.21912 8.05608 8.14659 8.21817 8.04324C8.36866 7.9461 8.49269 7.81314 8.57915 7.65628C8.734 7.33148 8.75443 6.95869 8.636 6.6189C8.58602 6.49184 8.51156 6.37583 8.41685 6.27749C8.31518 6.17291 8.19969 6.08272 8.0736 6.00943C7.92843 5.9244 7.77759 5.84944 7.62215 5.78508C7.49989 5.73434 7.38985 5.68503 7.29205 5.63714C7.20517 5.59555 7.12203 5.54657 7.04355 5.49074C6.98208 5.44764 6.92869 5.39405 6.88583 5.33241C6.84881 5.27644 6.82953 5.21061 6.83051 5.14351C6.82969 5.08176 6.8469 5.02111 6.88003 4.96899C6.916 4.91444 6.96399 4.86885 7.02032 4.83572C7.08917 4.79518 7.1641 4.76598 7.24222 4.74922C7.33814 4.72792 7.43618 4.71766 7.53443 4.71866C7.61706 4.71894 7.69957 4.72487 7.7814 4.73639C7.86976 4.74833 7.95718 4.76641 8.04303 4.79049C8.13036 4.81469 8.21577 4.84534 8.29856 4.88218C8.3789 4.91799 8.45574 4.96117 8.5281 5.01117V4.13608C8.37745 4.07909 8.22122 4.03811 8.06198 4.01382C7.8697 3.98584 7.67555 3.97266 7.48124 3.97439C7.26885 3.97325 7.05708 3.99736 6.85038 4.04622C6.66355 4.08892 6.4859 4.1648 6.32588 4.27027C6.17723 4.36929 6.05449 4.50251 5.96796 4.65875C5.87625 4.83226 5.83088 5.0265 5.83622 5.22268C5.82945 5.48211 5.9149 5.73554 6.07738 5.93791C6.27673 6.16228 6.52809 6.3343 6.80942 6.43887C6.93779 6.49185 7.05751 6.54371 7.16856 6.59445C7.26876 6.63903 7.36507 6.69189 7.45649 6.75247C7.53022 6.80044 7.59498 6.86095 7.64783 6.93128C7.69429 6.99506 7.71894 7.07213 7.71812 7.15104C7.71855 7.21017 7.70336 7.26837 7.67411 7.31976C7.64161 7.37499 7.59593 7.4213 7.54115 7.45455C7.47261 7.49634 7.39763 7.5265 7.31925 7.5438C7.21714 7.56663 7.11271 7.5774 7.00809 7.5759C6.80279 7.57552 6.59912 7.53932 6.40626 7.46892C6.20478 7.39621 6.01794 7.28804 5.85456 7.14951ZM4.27923 4.81494H5.50184V4.04255H2.0929V4.81494H3.31V8.25475H4.27923V4.81494Z" fill="white"/>
</svg>
