<svg width="40" height="38" viewBox="0 0 40 38" fill="none" xmlns="http://www.w3.org/2000/svg">
<path d="M13.5859 30.5469C13.5859 30.7031 13.4062 30.8281 13.1797 30.8281C12.9219 30.8516 12.7422 30.7266 12.7422 30.5469C12.7422 30.3906 12.9219 30.2656 13.1484 30.2656C13.3828 30.2422 13.5859 30.3672 13.5859 30.5469ZM11.1563 30.1953C11.1016 30.3516 11.2578 30.5312 11.4922 30.5781C11.6953 30.6562 11.9297 30.5781 11.9766 30.4219C12.0234 30.2656 11.875 30.0859 11.6406 30.0156C11.4375 29.9609 11.2109 30.0391 11.1563 30.1953ZM14.6094 30.0625C14.3828 30.1172 14.2266 30.2656 14.25 30.4453C14.2734 30.6016 14.4766 30.7031 14.7109 30.6484C14.9375 30.5938 15.0937 30.4453 15.0703 30.2891C15.0469 30.1406 14.8359 30.0391 14.6094 30.0625ZM19.75 0.125C8.91406 0.125 0.625 8.35156 0.625 19.1875C0.625 27.8516 6.07813 35.2656 13.8672 37.875C14.8672 38.0547 15.2188 37.4375 15.2188 36.9297C15.2188 36.4453 15.1953 33.7734 15.1953 32.1328C15.1953 32.1328 9.72656 33.3047 8.57813 29.8047C8.57813 29.8047 7.6875 27.5312 6.40625 26.9453C6.40625 26.9453 4.61719 25.7187 6.53125 25.7422C6.53125 25.7422 8.47656 25.8984 9.54687 27.7578C11.2578 30.7734 14.125 29.9063 15.2422 29.3906C15.4219 28.1406 15.9297 27.2734 16.4922 26.7578C12.125 26.2734 7.71875 25.6406 7.71875 18.125C7.71875 15.9766 8.3125 14.8984 9.5625 13.5234C9.35938 13.0156 8.69531 10.9219 9.76562 8.21875C11.3984 7.71094 15.1562 10.3281 15.1562 10.3281C16.7188 9.89063 18.3984 9.66406 20.0625 9.66406C21.7266 9.66406 23.4063 9.89063 24.9688 10.3281C24.9688 10.3281 28.7266 7.70312 30.3594 8.21875C31.4297 10.9297 30.7656 13.0156 30.5625 13.5234C31.8125 14.9063 32.5781 15.9844 32.5781 18.125C32.5781 25.6641 27.9766 26.2656 23.6094 26.7578C24.3281 27.375 24.9375 28.5469 24.9375 30.3828C24.9375 33.0156 24.9141 36.2734 24.9141 36.9141C24.9141 37.4219 25.2734 38.0391 26.2656 37.8594C34.0781 35.2656 39.375 27.8516 39.375 19.1875C39.375 8.35156 30.5859 0.125 19.75 0.125ZM8.21875 27.0703C8.11719 27.1484 8.14063 27.3281 8.27344 27.4766C8.39844 27.6016 8.57812 27.6563 8.67969 27.5547C8.78125 27.4766 8.75781 27.2969 8.625 27.1484C8.5 27.0234 8.32031 26.9687 8.21875 27.0703ZM7.375 26.4375C7.32031 26.5391 7.39844 26.6641 7.55469 26.7422C7.67969 26.8203 7.83594 26.7969 7.89062 26.6875C7.94531 26.5859 7.86719 26.4609 7.71094 26.3828C7.55469 26.3359 7.42969 26.3594 7.375 26.4375ZM9.90625 29.2187C9.78125 29.3203 9.82812 29.5547 10.0078 29.7031C10.1875 29.8828 10.4141 29.9063 10.5156 29.7813C10.6172 29.6797 10.5703 29.4453 10.4141 29.2969C10.2422 29.1172 10.0078 29.0937 9.90625 29.2187ZM9.01563 28.0703C8.89063 28.1484 8.89063 28.3516 9.01563 28.5313C9.14063 28.7109 9.35156 28.7891 9.45312 28.7109C9.57813 28.6094 9.57813 28.4063 9.45312 28.2266C9.34375 28.0469 9.14063 27.9688 9.01563 28.0703Z" fill="#EC3C3C"/>
</svg>
