<svg width="23" height="23" viewBox="0 0 23 23" fill="none" xmlns="http://www.w3.org/2000/svg">
<path d="M20.0171 0.71167H2.82959C1.53564 0.71167 0.48584 1.76147 0.48584 3.05542V20.2429C0.48584 21.5369 1.53564 22.5867 2.82959 22.5867H20.0171C21.311 22.5867 22.3608 21.5369 22.3608 20.2429V3.05542C22.3608 1.76147 21.311 0.71167 20.0171 0.71167ZM12.3901 17.7722C12.3901 19.9011 11.1401 20.8728 9.31885 20.8728C7.67334 20.8728 6.72119 20.0232 6.23291 18.9929L7.90771 17.9822C8.22998 18.5535 8.52295 19.0369 9.23096 19.0369C9.90479 19.0369 10.3345 18.7732 10.3345 17.7429V10.7556H12.3901V17.7722ZM17.2534 20.8728C15.3442 20.8728 14.1089 19.9646 13.5083 18.7732L15.1831 17.8064C15.6226 18.5242 16.1987 19.0564 17.2095 19.0564C18.0591 19.0564 18.606 18.6316 18.606 18.0408C18.606 17.3376 18.0493 17.0886 17.1069 16.6736L16.5942 16.4539C15.1099 15.824 14.1284 15.0281 14.1284 13.3533C14.1284 11.8103 15.3052 10.6384 17.1362 10.6384C18.4448 10.6384 19.3823 11.0925 20.0562 12.2839L18.4546 13.3093C18.103 12.6794 17.7222 12.4304 17.1313 12.4304C16.5308 12.4304 16.1499 12.8113 16.1499 13.3093C16.1499 13.9246 16.5308 14.1736 17.4146 14.5593L17.9272 14.7791C19.6753 15.5261 20.6567 16.2927 20.6567 18.0115C20.6567 19.8572 19.2017 20.8728 17.2534 20.8728Z" fill="#ECC53C"/>
</svg>
