<svg width="26" height="23" viewBox="0 0 26 23" fill="none" xmlns="http://www.w3.org/2000/svg">
<path d="M21.3433 7.80151C21.0796 7.71362 20.8159 7.63061 20.5522 7.55249C20.5962 7.37183 20.6353 7.19116 20.6743 7.0105C21.2749 4.10034 20.8794 1.76147 19.5464 0.98999C18.2622 0.252685 16.1675 1.01929 14.0483 2.86499C13.8384 3.04565 13.6333 3.23608 13.438 3.42651C13.3062 3.29956 13.1694 3.17261 13.0327 3.05054C10.811 1.07788 8.58447 0.247803 7.25147 1.02417C5.97217 1.76636 5.59131 3.96851 6.12842 6.72241C6.18213 6.99585 6.24072 7.2644 6.30908 7.53784C5.99658 7.62573 5.68896 7.72339 5.40088 7.82593C2.79346 8.72925 0.92334 10.155 0.92334 11.6296C0.92334 13.1531 2.91553 14.6814 5.62549 15.6091C5.84521 15.6824 6.06494 15.7556 6.28955 15.8191C6.21631 16.1121 6.15283 16.4001 6.09424 16.698C5.58154 19.408 5.98193 21.5564 7.26123 22.2937C8.57959 23.0554 10.7964 22.2742 12.9546 20.3845C13.1255 20.2332 13.2964 20.0769 13.4673 19.9109C13.6821 20.1208 13.9067 20.321 14.1313 20.5164C16.2212 22.3132 18.2866 23.0408 19.561 22.3035C20.8794 21.5417 21.3091 19.2322 20.7524 16.4197C20.7085 16.2048 20.6597 15.9851 20.606 15.7605C20.7622 15.7166 20.9136 15.6677 21.0649 15.6189C23.8823 14.6863 25.9233 13.1775 25.9233 11.6296C25.9233 10.1501 23.9995 8.7146 21.3433 7.80151ZM14.7368 3.65601C16.5532 2.07397 18.2476 1.45386 19.019 1.89819C19.8442 2.37183 20.1616 4.28589 19.644 6.80054C19.6099 6.96655 19.5757 7.12768 19.5317 7.28882C18.4478 7.04468 17.3491 6.8689 16.2456 6.77124C15.6108 5.86304 14.9175 4.9939 14.1655 4.17847C14.356 3.9978 14.5415 3.8269 14.7368 3.65601ZM9.0874 14.1638C9.33643 14.5886 9.59033 15.0134 9.85889 15.4285C9.09717 15.3455 8.34033 15.2234 7.59326 15.0623C7.80811 14.3591 8.07666 13.6316 8.38916 12.8894C8.61377 13.3191 8.84326 13.7439 9.0874 14.1638ZM7.60791 8.28979C8.31103 8.13354 9.05811 8.00659 9.83447 7.90893C9.57568 8.31421 9.32178 8.72925 9.08252 9.14917C8.84326 9.56421 8.60889 9.98901 8.38916 10.4187C8.08154 9.69116 7.82275 8.97827 7.60791 8.28979ZM8.9458 11.6541C9.26807 10.9802 9.61963 10.321 9.99072 9.67163C10.3618 9.02222 10.7622 8.39233 11.1821 7.77222C11.9146 7.71851 12.6616 7.68921 13.4233 7.68921C14.1851 7.68921 14.937 7.71851 15.6646 7.77222C16.0796 8.38745 16.4751 9.01733 16.8511 9.66186C17.2271 10.3064 17.5786 10.9656 17.9106 11.6345C17.5835 12.3083 17.2319 12.9724 16.856 13.6267C16.4849 14.2761 16.0894 14.906 15.6743 15.531C14.9468 15.5847 14.1899 15.6091 13.4233 15.6091C12.6567 15.6091 11.9146 15.5847 11.1968 15.5408C10.772 14.9207 10.3716 14.2859 9.99561 13.6365C9.61963 12.9871 9.27295 12.3279 8.9458 11.6541ZM17.7642 14.1541C18.0132 13.7244 18.2476 13.2898 18.4771 12.8503C18.7896 13.5583 19.063 14.2761 19.3022 15.0134C18.5454 15.1843 17.7788 15.3162 17.0073 15.4041C17.271 14.9939 17.52 14.574 17.7642 14.1541ZM18.4673 10.4187C18.2378 9.98901 18.0034 9.55933 17.7593 9.1394C17.52 8.72436 17.271 8.31421 17.0122 7.90893C17.7983 8.00659 18.5503 8.13843 19.2534 8.29956C19.0288 9.02222 18.7651 9.72534 18.4673 10.4187ZM13.4331 4.92554C13.9458 5.48218 14.4292 6.06811 14.8784 6.67358C13.9116 6.62964 12.9399 6.62964 11.9731 6.67358C12.4517 6.0437 12.9448 5.45776 13.4331 4.92554ZM7.76904 1.93237C8.58936 1.45386 10.4106 2.13745 12.3296 3.83667C12.4517 3.94409 12.5737 4.06128 12.7007 4.17847C11.9438 4.9939 11.2456 5.86304 10.606 6.77124C9.50244 6.8689 8.40869 7.03979 7.32471 7.27905C7.26123 7.03003 7.20752 6.77612 7.15381 6.52222C6.69482 4.15893 6.99756 2.37671 7.76904 1.93237ZM6.57275 14.8035C6.36768 14.7449 6.16748 14.6814 5.96729 14.613C4.92725 14.2859 3.74561 13.7683 2.89111 13.0896C2.39795 12.7478 2.06592 12.2205 1.97314 11.6296C1.97314 10.7361 3.51611 9.5935 5.74268 8.81714C6.021 8.71948 6.3042 8.63159 6.5874 8.54858C6.91943 9.60815 7.31982 10.6482 7.78369 11.6541C7.31494 12.6746 6.90967 13.7292 6.57275 14.8035ZM12.2661 19.5886C11.4604 20.3259 10.5278 20.9119 9.51221 21.3123C8.97021 21.571 8.34522 21.5955 7.78857 21.3757C7.01221 20.9265 6.68994 19.2029 7.12939 16.8835C7.18311 16.6101 7.2417 16.3367 7.31006 16.0681C8.40381 16.3025 9.50732 16.4636 10.6255 16.5466C11.27 17.4597 11.978 18.3337 12.7349 19.1541C12.5786 19.3054 12.4224 19.4519 12.2661 19.5886ZM13.4624 18.4021C12.9644 17.865 12.4663 17.2693 11.9829 16.6296C12.4517 16.6492 12.9351 16.6589 13.4233 16.6589C13.9263 16.6589 14.4194 16.6492 14.9077 16.6248C14.4585 17.2449 13.9751 17.8357 13.4624 18.4021ZM19.8442 19.8669C19.8003 20.4626 19.5073 21.0193 19.0386 21.3953C18.2622 21.8445 16.6069 21.2585 14.8198 19.7253C14.6147 19.5496 14.4097 19.3591 14.1997 19.1638C14.9468 18.3386 15.6353 17.4646 16.2603 16.5466C17.3784 16.4539 18.4917 16.283 19.5903 16.0339C19.6392 16.2341 19.6831 16.4343 19.7222 16.6296C19.9614 17.6843 20.0005 18.783 19.8442 19.8669ZM20.7329 14.6179C20.5962 14.6619 20.4595 14.7058 20.3179 14.7449C19.9761 13.6804 19.5562 12.6404 19.0728 11.6296C19.5415 10.6335 19.937 9.60815 20.269 8.55835C20.5229 8.63159 20.7671 8.70972 21.0015 8.78784C23.2769 9.56909 24.8735 10.7312 24.8735 11.6199C24.8735 12.5769 23.1694 13.8123 20.7329 14.6179ZM13.4233 13.8855C14.6587 13.8855 15.6597 12.8845 15.6597 11.6492C15.6597 10.4138 14.6587 9.41284 13.4233 9.41284C12.188 9.41284 11.187 10.4138 11.187 11.6492C11.187 12.8845 12.188 13.8855 13.4233 13.8855Z" fill="#3C97EC"/>
</svg>
