<svg width="40" height="41" viewBox="0 0 40 41" fill="none" xmlns="http://www.w3.org/2000/svg">
<path d="M35.8883 12.3528C35.9137 12.7081 35.9137 13.0635 35.9137 13.4188C35.9137 24.2563 27.665 36.7436 12.5888 36.7436C7.94414 36.7436 3.62945 35.3984 0 33.0635C0.659922 33.1395 1.29437 33.1649 1.97969 33.1649C5.81211 33.1649 9.34008 31.8706 12.1573 29.6624C8.55328 29.5863 5.53297 27.2259 4.49234 23.9771C5 24.0532 5.50758 24.104 6.04063 24.104C6.77664 24.104 7.51273 24.0024 8.19797 23.8249C4.44164 23.0634 1.6243 19.7639 1.6243 15.7792V15.6777C2.71563 16.2868 3.98477 16.6675 5.32984 16.7182C3.12172 15.2461 1.67508 12.7335 1.67508 9.8908C1.67508 8.36799 2.08109 6.97205 2.7918 5.75377C6.82734 10.7284 12.8934 13.977 19.6953 14.3324C19.5684 13.7233 19.4923 13.0888 19.4923 12.4543C19.4923 7.9365 23.1471 4.25635 27.6902 4.25635C30.0506 4.25635 32.1826 5.24619 33.6801 6.84518C35.5328 6.48986 37.3095 5.80455 38.8831 4.86549C38.2739 6.76908 36.9795 8.36807 35.2791 9.38322C36.9288 9.20564 38.5278 8.74869 39.9998 8.11424C38.8833 9.73853 37.4873 11.1852 35.8883 12.3528Z" fill="#EC3C3C"/>
</svg>
